<svg xmlns="http://www.w3.org/2000/svg" viewBox="0 0 36.17 36.17"><defs><style>.cls-1,.cls-2{fill:none;stroke:#132052;stroke-miterlimit:10;}.cls-1{stroke-width:1.17px;}.cls-2{stroke-width:0.75px;}</style></defs><title>Modificador Stock On</title><g id="Capa_2" data-name="Capa 2"><g id="Capa_1-2" data-name="Capa 1"><path class="cls-1" d="M34.53.58H1.64A1.06,1.06,0,0,0,.58,1.64V34.53a1.06,1.06,0,0,0,1.06,1.06H34.53a1.06,1.06,0,0,0,1.06-1.06V1.64A1.06,1.06,0,0,0,34.53.58ZM14.91,2.7h6.34v9.45l-2.7-1.35a1.06,1.06,0,0,0-.94,0l-2.7,1.35Z"/><rect class="cls-2" x="13.33" y="18.83" width="9.13" height="1.92" rx="0.91" ry="0.91"/><rect class="cls-2" x="13.33" y="22.83" width="9.13" height="1.92" rx="0.91" ry="0.91"/></g></g></svg>