<svg xmlns="http://www.w3.org/2000/svg" viewBox="0 0 36 36"><defs><style>.cls-1{fill:none;stroke:#bfc7c6;stroke-miterlimit:10;}</style></defs><title>Modifivador Stock Off</title><g id="Capa_2" data-name="Capa 2"><g id="Capa_1-2" data-name="Capa 1"><path class="cls-1" d="M34.44.5H1.56A1.06,1.06,0,0,0,.5,1.56V34.44A1.06,1.06,0,0,0,1.56,35.5H34.44a1.06,1.06,0,0,0,1.06-1.06V1.56A1.06,1.06,0,0,0,34.44.5ZM14.83,2.61h6.34v9.45l-2.7-1.35a1.06,1.06,0,0,0-.94,0l-2.7,1.35Z"/><rect class="cls-1" x="13.25" y="18.75" width="9.13" height="1.92" rx="0.91" ry="0.91"/><rect class="cls-1" x="13.25" y="22.75" width="9.13" height="1.92" rx="0.91" ry="0.91"/></g></g></svg>