<svg xmlns="http://www.w3.org/2000/svg" viewBox="0 0 35 35"><defs><style>.cls-1{fill:#132052;}</style></defs><title>Remove On</title><g id="Capa_2" data-name="Capa 2"><g id="Capa_1-2" data-name="Capa 1"><path class="cls-1" d="M30.33,10.65a.66.66,0,0,1,1.3,0v21A3.12,3.12,0,0,1,30.45,34a4.43,4.43,0,0,1-2.84,1H7.39a4.43,4.43,0,0,1-2.84-1,3.12,3.12,0,0,1-1.18-2.38v-21A.61.61,0,0,1,4,10.1a.61.61,0,0,1,.65.55v21a2.11,2.11,0,0,0,.8,1.61,3,3,0,0,0,1.92.67H27.61a3,3,0,0,0,1.92-.67,2.11,2.11,0,0,0,.8-1.61v-21Z"/><path class="cls-1" d="M12.64,30.21a.66.66,0,0,1-1.3,0V10.79a.66.66,0,0,1,1.3,0Z"/><path class="cls-1" d="M18.15,30.21a.66.66,0,0,1-1.3,0V10.79a.66.66,0,0,1,1.3,0Z"/><path class="cls-1" d="M23.67,30.21a.66.66,0,0,1-1.3,0V10.79a.66.66,0,0,1,1.3,0V30.21Z"/><path class="cls-1" d="M12.26,3.37a.66.66,0,0,1-1.3,0A3.12,3.12,0,0,1,12.13,1,4.43,4.43,0,0,1,15,0H20a4.43,4.43,0,0,1,2.84,1A3.12,3.12,0,0,1,24,3.37a.66.66,0,0,1-1.3,0,2.11,2.11,0,0,0-.8-1.61A3,3,0,0,0,20,1.09H15a3,3,0,0,0-1.92.67A2.11,2.11,0,0,0,12.26,3.37Z"/><path class="cls-1" d="M2.34,4.94H32.66a2.57,2.57,0,0,1,1.65.58h0A1.81,1.81,0,0,1,35,6.9V8.32a.61.61,0,0,1-.65.55H.65A.61.61,0,0,1,0,8.32H0V6.9A1.81,1.81,0,0,1,.69,5.52h0a2.57,2.57,0,0,1,1.65-.58ZM32.66,6H2.34a1.13,1.13,0,0,0-.73.25h0a.8.8,0,0,0-.3.61v.87H33.69V6.9a.8.8,0,0,0-.3-.61h0A1.13,1.13,0,0,0,32.66,6Z"/></g></g></svg>