<svg id="Layer_1" data-name="Layer 1" xmlns="http://www.w3.org/2000/svg" viewBox="0 0 25.89 26.12"><defs><style>.cls-1{fill:#a1a1a1;}</style></defs><title>ZAI_Iconos_Almacen</title><path class="cls-1" d="M16.91,1.8l-.07,0a13.73,13.73,0,0,0-1.32-.56l-.13,0a10.7,10.7,0,0,0-7.17,0l-.05,0a13.64,13.64,0,0,0-1.32.55l0,0a11.14,11.14,0,0,0-3,2.1,10.94,10.94,0,0,0-2.09,3l0,.08a10.2,10.2,0,0,0-.55,1.32h0A9.85,9.85,0,0,0,.92,15l.2.59a10.68,10.68,0,0,0,.55,1.31l.15.31A11.4,11.4,0,0,0,3.8,20a11.36,11.36,0,0,0,2.94,2.07l.12.06a12.51,12.51,0,0,0,1.31.55h.05a10.94,10.94,0,0,0,6.88.12l.05,0a14.49,14.49,0,0,0,1.69-.67l.07,0c.43-.22.84-.47,1.25-.73l3.58,3.57a2.18,2.18,0,0,0,3.09,0h0a2.19,2.19,0,0,0,0-3.09l-3.58-3.57A12.67,12.67,0,0,0,22,17l0-.06a10.2,10.2,0,0,0,.55-1.32l0,0a11.49,11.49,0,0,0,0-7.24l0-.05A10.2,10.2,0,0,0,22,7l0-.06a11.26,11.26,0,0,0-2.09-3A11.45,11.45,0,0,0,16.91,1.8Zm.25,15.46a7.52,7.52,0,1,1,0-10.63A7.53,7.53,0,0,1,17.16,17.26Z"/></svg>